<?xml version="1.0" encoding="utf-8"?>
<!-- Generator: Adobe Illustrator 19.0.0, SVG Export Plug-In . SVG Version: 6.00 Build 0)  -->
<svg version="1.1" id="Layer_1" xmlns="http://www.w3.org/2000/svg" xmlns:xlink="http://www.w3.org/1999/xlink" x="0px" y="0px"
	 viewBox="0 0 200 200" style="enable-background:new 0 0 200 200;" xml:space="preserve">
<style type="text/css">
	.st0{fill:#FFFFFF;}
	.st1{fill:#F1F3FA;}
</style>
<path id="XMLID_6_" class="st0" d="M148.7,38.6c-5.3-2.4-11.2-3.8-17.5-3.9c-8.9,0-17,2.5-22.6,7.2c1.8-2.7,4.2-4.8,7.2-6.5
	c-5.4-5.6-12.9-9.1-21.3-9.1c-16.3,0-29.6,13.3-29.6,29.6c0,3.1,0.5,6,1.3,8.8c4.7,0.8,9,2.9,12.3,5.9c-3.4-1.8-7.3-3-11.4-3.4
	c0,0,0,0,0,0.1c-0.7-0.1-1.3-0.1-2-0.1c-10.7,0-19.4,8.7-19.4,19.4c0,1.8,0.3,3.5,0.7,5.1c5.8,0.4,11,2.6,15,6.2
	c-4.2-2.3-9.2-3.6-14.4-3.6c-11.4,0-21.3,6.2-26.1,15.3c-1.3,3.3-2.1,6.9-2.1,10.6c0,15.7,12.7,28.4,28.4,28.4
	c1.2,0,2.3-0.1,3.5-0.2h1.6C132,121.1,146.4,54.2,148.7,38.6z"/>
<path id="XMLID_3_" class="st1" d="M151.3,148c15.7-0.7,28.2-13.7,28.2-29.6c0-8.3-3.4-15.7-8.8-21.1c2.6-5.6,4-11.9,4-18.5
	c0-17.9-10.7-33.4-26-40.3c-2.3,15.6-16.7,82.5-96.4,109.6h99V148z"/>
</svg>
