<?xml version="1.0" encoding="utf-8"?>
<!-- Generator: Adobe Illustrator 19.0.0, SVG Export Plug-In . SVG Version: 6.00 Build 0)  -->
<svg version="1.1" id="Layer_1" xmlns="http://www.w3.org/2000/svg" xmlns:xlink="http://www.w3.org/1999/xlink" x="0px" y="0px"
	 viewBox="0 0 200 200" style="enable-background:new 0 0 200 200;" xml:space="preserve">
<style type="text/css">
	.st0{fill:none;}
	.st1{fill:#FFFFFF;}
	.st2{fill:#F1F3FA;}
</style>
<g id="XMLID_11_">
	<path id="XMLID_13_" class="st0" d="M58.8,57.4c-0.4-0.3-0.8-0.6-1.2-0.9c0.4,0.3,0.8,0.6,1.2,1C58.8,57.5,58.8,57.4,58.8,57.4z"/>
	<path id="XMLID_12_" class="st0" d="M26.5,102.5c-0.1-0.1-0.2-0.2-0.3-0.2c0,1,0,2.1,0.1,3.1c0,0.1,0,0.2,0,0.3c0,0,0,0,0-0.1
		C26.4,104.5,26.4,103.5,26.5,102.5z"/>
</g>
<g id="XMLID_3_">
	<path id="XMLID_7_" class="st1" d="M134.9,58.4c-1.5,1.2-2.7,2.6-3.8,4.3c-3.8-6.3-10.3-10.4-17.7-10.4c-1.4,0-2.8,0.2-4.2,0.5
		c-3.6-11-13.3-18.9-24.6-18.9c-12.2,0-22.4,9.1-25.3,21.3c3.1,3,5.6,6.4,7.2,10c-2.1-2.8-4.6-5.5-7.6-7.8c0,0,0,0.1,0,0.1
		c-0.4-0.3-0.8-0.7-1.2-1c-1.4-1-2.9-2-4.5-2.8c-0.6-0.3-1.2-0.6-1.8-0.9c-2.9-1.2-6-1.8-9.2-1.8c-14.5,0-26.2,12.8-26.2,28.6
		c0,8.2,3.2,15.6,8.2,20.8c0.8-4.6,2.4-8.8,4.8-12.3c-1.7,4.3-2.6,9.2-2.6,14.3c0.1,0.1,0.2,0.2,0.3,0.2c-0.1,1-0.2,2-0.2,3.1
		c0,0,0,0,0,0.1c0.5,6.3,2.3,12.1,5.2,16.9c4.8,7,12.4,11.6,21,11.6c6.2,0,12-2.4,16.5-6.4c1.5,1.6,3.2,3,5.1,4.2
		C111.5,112.2,127.8,80.3,134.9,58.4z"/>
	<path id="XMLID_4_" class="st2" d="M104.4,126.2c3,1.8,6.5,2.8,10.2,2.8c9.2,0,17-6.3,20-15.2c4.1,3.6,9.3,5.7,15,5.7
		c10.4,0,19.3-7.2,22.7-17.3c9-1.3,16-9.6,16-19.8c0-11-8.2-20-18.3-20c-3.6,0-7,1.2-9.9,3.2c-2.6-6.3-8.4-10.8-15.2-10.8
		c-3.7,0-7.1,1.3-9.9,3.6c-7.1,22-23.5,53.8-60.8,73.6c3.5,2.2,7.6,3.4,11.9,3.4C93.4,135.4,99.9,131.9,104.4,126.2z"/>
</g>
</svg>
