<?xml version="1.0" encoding="utf-8"?>
<!-- Generator: Adobe Illustrator 19.0.0, SVG Export Plug-In . SVG Version: 6.00 Build 0)  -->
<svg version="1.1" id="Layer_1" xmlns="http://www.w3.org/2000/svg" xmlns:xlink="http://www.w3.org/1999/xlink" x="0px" y="0px"
	 viewBox="0 0 200 200" style="enable-background:new 0 0 200 200;" xml:space="preserve">
<style type="text/css">
	.st0{fill:#FFFFFF;}
	.st1{fill:#F1F3FA;}
</style>
<g id="XMLID_3_">
	<path id="XMLID_7_" class="st0" d="M150.9,38.8c-6.7-6.4-15.9-10.4-25.9-10.4c-16.5,0-30.6,10.7-35.6,25.5c0.1,0.1,0.2,0.2,0.4,0.3
		c4.8,3.9,7.6,9.3,8.3,15c-1.7-4.4-4.4-8.3-8.3-11.4c-4.7-3.8-10.3-5.7-16-6C58.1,52,45.2,64,43.7,79.4c4.5,0.6,8.5,2.5,11.7,5.2
		c-3.5-1.9-7.6-2.9-11.9-3.1c0,0.1,0,0.1,0,0.2c-0.6,0-1.2-0.1-1.8-0.1c-2.1,0-4.1,0.3-6,0.8c0,0,0,0-0.1,0
		c-0.4,0.1-0.7,0.2-1.1,0.3c-0.1,0-0.1,0-0.2,0.1c-9.8,3.1-16.8,12.2-16.8,23c0,13.4,10.8,24.2,24.2,24.2c1.8,0,3.6-0.2,5.3-0.6
		c5.5,5.8,12.7,9.9,20.9,11.3C141.1,112.1,150.2,46.2,150.9,38.8z"/>
	<path id="XMLID_4_" class="st1" d="M79.5,141.1c4.8,3.2,10.6,5,16.9,5c6,0,11.6-1.7,16.3-4.7c5.3,3.4,11.6,5.3,18.3,5.3
		c13.3,0,24.9-7.6,30.5-18.8c15.4-0.2,27.9-12.7,27.9-28.2c0-15.3-12.1-27.7-27.3-28.2c0.3-1.9,0.4-3.8,0.4-5.8
		c0-10.7-4.5-20.3-11.6-27.1c-0.8,7.4-9.9,73.3-83.1,102.1c2.1,0.4,4.3,0.6,6.5,0.6C76.1,141.4,77.8,141.3,79.5,141.1z"/>
</g>
</svg>
