<?xml version="1.0" encoding="utf-8"?>
<!-- Generator: Adobe Illustrator 19.0.0, SVG Export Plug-In . SVG Version: 6.00 Build 0)  -->
<svg version="1.1" id="Layer_1" xmlns="http://www.w3.org/2000/svg" xmlns:xlink="http://www.w3.org/1999/xlink" x="0px" y="0px"
	 viewBox="0 0 18 14" style="enable-background:new 0 0 18 14;" xml:space="preserve">
<style type="text/css">
	.st0{fill:#010101;stroke:#000000;stroke-width:0.2;stroke-miterlimit:10;}
</style>
<g id="XMLID_2_">
	<circle id="XMLID_13_" class="st0" cx="6.1" cy="11.3" r="0.8"/>
	<circle id="XMLID_12_" class="st0" cx="7.6" cy="8.9" r="0.8"/>
	<circle id="XMLID_11_" class="st0" cx="4.7" cy="8.9" r="0.8"/>
	<circle id="XMLID_10_" class="st0" cx="9" cy="11.3" r="0.8"/>
	<circle id="XMLID_9_" class="st0" cx="10.4" cy="8.9" r="0.8"/>
	<circle id="XMLID_8_" class="st0" cx="11.9" cy="11.3" r="0.8"/>
	<circle id="XMLID_7_" class="st0" cx="13.3" cy="8.9" r="0.8"/>
	<path id="XMLID_3_" class="st0" d="M16.7,4.3h-3.9l-2.7-3.8C10,0.4,9.7,0.3,9.5,0.4C9.4,0.6,9.3,0.8,9.5,1l2.3,3.3H6.2L8.5,1
		c0.1-0.2,0.1-0.4-0.1-0.5C8.3,0.3,8,0.4,7.9,0.5L5.3,4.3H1.3c-0.2,0-0.4,0.2-0.4,0.4V7c0,0.2,0.2,0.4,0.4,0.4H2l1.2,6
		c0,0.2,0.2,0.3,0.4,0.3h10.7c0.2,0,0.3-0.1,0.4-0.3l1.2-6h0.7c0.2,0,0.4-0.2,0.4-0.4V4.7C17.1,4.5,16.9,4.3,16.7,4.3z M14.1,12.9
		H3.9L2.8,7.3h12.4L14.1,12.9z M16.3,6.6h-0.6c0,0,0,0,0,0c0,0,0,0,0,0H2.3H1.7V5.1h3L4.4,5.6C4.2,5.8,4.3,6,4.5,6.1
		c0.1,0,0.1,0.1,0.2,0.1C4.8,6.2,4.9,6.1,5,6l0.7-0.9h6.7L13,6c0.1,0.1,0.2,0.2,0.3,0.2c0.1,0,0.2,0,0.2-0.1
		c0.2-0.1,0.2-0.4,0.1-0.5l-0.4-0.5h3V6.6z"/>
</g>
</svg>
