<?xml version="1.0" encoding="utf-8"?>
<!-- Generator: Adobe Illustrator 19.0.0, SVG Export Plug-In . SVG Version: 6.00 Build 0)  -->
<svg version="1.1" id="Layer_1" xmlns="http://www.w3.org/2000/svg" xmlns:xlink="http://www.w3.org/1999/xlink" x="0px" y="0px"
	 viewBox="0 0 18 14" style="enable-background:new 0 0 18 14;" xml:space="preserve">
<style type="text/css">
	.st0{fill:#010101;}
</style>
<g>
	<path id="XMLID_10_" class="st0" d="M16.2,2C16,1.9,15.8,2,15.7,2.2l-1.4,5.6H6.5L5,1.3C4.9,1.1,4.8,1,4.7,1L2,0.2
		C1.8,0.1,1.6,0.2,1.5,0.4C1.4,0.7,1.6,0.9,1.8,0.9l2.5,0.7l1.5,6.7c0,0.2,0.2,0.3,0.4,0.3h8.5c0.2,0,0.3-0.1,0.4-0.3l1.5-6
		C16.5,2.2,16.4,2,16.2,2z"/>
	<circle id="XMLID_9_" class="st0" cx="10.4" cy="3" r="0.8"/>
	<circle id="XMLID_8_" class="st0" cx="12.8" cy="3" r="0.8"/>
	<circle id="XMLID_7_" class="st0" cx="11.8" cy="5.5" r="0.8"/>
	<circle id="XMLID_6_" class="st0" cx="9.4" cy="5.5" r="0.8"/>
	<circle id="XMLID_5_" class="st0" cx="7.9" cy="3" r="0.8"/>
	<path class="st0" d="M13.8,9.5c-1.2,0-2.2,1-2.2,2.2s1,2.2,2.2,2.2c1.2,0,2.2-1,2.2-2.2S15,9.5,13.8,9.5z M13.8,13.1
		c-0.8,0-1.4-0.6-1.4-1.4c0-0.8,0.6-1.4,1.4-1.4c0.8,0,1.4,0.6,1.4,1.4C15.2,12.4,14.6,13.1,13.8,13.1z"/>
	<path class="st0" d="M6.9,9.5c-1.2,0-2.2,1-2.2,2.2s1,2.2,2.2,2.2c1.2,0,2.2-1,2.2-2.2S8.1,9.5,6.9,9.5z M6.9,13.1
		c-0.8,0-1.4-0.6-1.4-1.4c0-0.8,0.6-1.4,1.4-1.4c0.8,0,1.4,0.6,1.4,1.4C8.3,12.4,7.7,13.1,6.9,13.1z"/>
</g>
</svg>
