<?xml version="1.0" encoding="utf-8"?>
<!-- Generator: Adobe Illustrator 19.0.0, SVG Export Plug-In . SVG Version: 6.00 Build 0)  -->
<svg version="1.1" id="Layer_1" xmlns="http://www.w3.org/2000/svg" xmlns:xlink="http://www.w3.org/1999/xlink" x="0px" y="0px"
	 viewBox="0 0 23 23" style="enable-background:new 0 0 23 23;" xml:space="preserve">
<style type="text/css">
	.st0{fill:#010101;stroke:#010101;stroke-width:0.2;stroke-miterlimit:10;}
</style>
<path class="st0" d="M19.1,6.5h-2.9v-1c0-2.6-2.1-4.7-4.7-4.7C9,0.8,6.9,2.9,6.9,5.5v1h-3C3.6,6.5,3.4,6.7,3.4,7v10.6
	c0,2.5,2.1,4.6,4.6,4.6h7c2.5,0,4.6-2.1,4.6-4.6V7C19.6,6.7,19.4,6.5,19.1,6.5z M7.8,5.5c0-2.1,1.7-3.8,3.8-3.8
	c2.1,0,3.8,1.7,3.8,3.8v1H7.8V5.5z M18.6,17.6c0,2-1.6,3.6-3.6,3.6H8c-2,0-3.6-1.6-3.6-3.6V7.5h2.5v1.1c0,0,0,0.1,0,0.1
	C6.6,8.8,6.4,9.2,6.4,9.6c0,0.6,0.4,1,1,1c0.6,0,1-0.4,1-1c0-0.4-0.2-0.7-0.6-0.9c0,0,0-0.1,0-0.1V7.5h7.5v1.1c0,0,0,0.1,0,0.1
	c-0.3,0.2-0.6,0.5-0.6,0.9c0,0.6,0.4,1,1,1c0.6,0,1-0.4,1-1c0-0.4-0.2-0.7-0.6-0.9c0,0,0-0.1,0-0.1V7.5h2.4V17.6z"/>
</svg>
