<?xml version="1.0" encoding="utf-8"?>
<!-- Generator: Adobe Illustrator 19.0.0, SVG Export Plug-In . SVG Version: 6.00 Build 0)  -->
<svg version="1.1" id="Layer_1" xmlns="http://www.w3.org/2000/svg" xmlns:xlink="http://www.w3.org/1999/xlink" x="0px" y="0px"
	 viewBox="0 0 23 23" style="enable-background:new 0 0 23 23;" xml:space="preserve">
<style type="text/css">
	.st0{fill:#010101;stroke:#010101;stroke-width:0.5;stroke-miterlimit:10;}
</style>
<path class="st0" d="M18.4,14.4c-1.5-1.3-2.1-6.5-2.1-7.2c0-1.4-1.2-2.6-2.6-2.6h-0.4c0.2-0.3,0.3-0.7,0.3-1.1c0-1.1-0.9-2-2-2
	c-1.1,0-2,0.9-2,2c0,0.4,0.1,0.8,0.3,1.1H9.4c-1.4,0-2.6,1.2-2.6,2.6c0,0.7-0.6,5.8-2.1,7.2c-1.3,1.2-2.1,2.5-2.1,3.5
	c0,0.3,0.2,0.5,0.5,0.5h4.8c0.2,1.8,1.8,3.2,3.7,3.2s3.4-1.4,3.7-3.2H20c0.3,0,0.5-0.2,0.5-0.5C20.5,16.8,19.7,15.6,18.4,14.4z
	 M11.5,2.5c0.6,0,1,0.5,1,1c0,0.6-0.5,1-1,1c-0.6,0-1-0.5-1-1C10.5,2.9,10.9,2.5,11.5,2.5z M11.5,20.5c-1.3,0-2.4-0.9-2.6-2.2h5.3
	C13.9,19.6,12.8,20.5,11.5,20.5z M14.6,17.3H8.3H3.6c0.2-0.6,0.7-1.3,1.7-2.2c2-1.8,2.5-7.9,2.5-7.9c0-0.9,0.7-1.6,1.6-1.6h4.3
	c0.9,0,1.6,0.7,1.6,1.6c0,0.1,0.5,6.1,2.5,7.9c1,0.9,1.5,1.6,1.7,2.2H14.6z"/>
</svg>
