<?xml version="1.0" encoding="utf-8"?>
<!-- Generator: Adobe Illustrator 19.0.0, SVG Export Plug-In . SVG Version: 6.00 Build 0)  -->
<svg version="1.1" id="Layer_1" xmlns="http://www.w3.org/2000/svg" xmlns:xlink="http://www.w3.org/1999/xlink" x="0px" y="0px"
	 viewBox="0 0 18 14" style="enable-background:new 0 0 18 14;" xml:space="preserve">
<style type="text/css">
	.st0{fill:#010101;stroke:#000000;stroke-width:0.2;stroke-miterlimit:10;}
</style>
<g id="XMLID_14_">
	<path id="XMLID_22_" class="st0" d="M7.9,13.4L15,6.8c0,0,0.1-0.1,0.1-0.1l0.6-2.6c0-0.1,0-0.2-0.1-0.3l-3-3.3
		c-0.1-0.1-0.2-0.1-0.3-0.1L9.7,0.9c-0.1,0-0.1,0-0.2,0.1L2.4,7.6C2.3,7.7,2.3,7.9,2.4,8l5.1,5.4C7.6,13.5,7.8,13.5,7.9,13.4z
		 M3.1,7.8l6.8-6.3l2.4-0.4l2.8,3l-0.6,2.4l-6.8,6.3L3.1,7.8z"/>
	<path id="XMLID_19_" class="st0" d="M13,3.2c-0.5-0.6-1.4-0.6-2-0.1c-0.6,0.5-0.6,1.4-0.1,2s1.4,0.6,2,0.1
		C13.5,4.6,13.5,3.8,13,3.2z M12.5,4.7c-0.3,0.3-0.8,0.3-1.2,0c-0.3-0.3-0.3-0.8,0-1.2c0.3-0.3,0.8-0.3,1.2,0
		C12.9,3.9,12.9,4.4,12.5,4.7z"/>
	<path id="XMLID_18_" class="st0" d="M11.1,7l-3.8,3.6c-0.1,0.1-0.1,0.3,0,0.4c0.1,0.1,0.3,0.1,0.4,0l3.8-3.6c0.1-0.1,0.1-0.3,0-0.4
		C11.4,6.9,11.2,6.9,11.1,7z"/>
	<path id="XMLID_17_" class="st0" d="M10.3,6.1L6.5,9.7c-0.1,0.1-0.1,0.3,0,0.4c0.1,0.1,0.3,0.1,0.4,0l3.8-3.6
		c0.1-0.1,0.1-0.3,0-0.4C10.6,6,10.4,6,10.3,6.1z"/>
	<path id="XMLID_16_" class="st0" d="M9.5,5.3L5.7,8.8c-0.1,0.1-0.1,0.3,0,0.4c0.1,0.1,0.3,0.1,0.4,0l3.8-3.6c0.1-0.1,0.1-0.3,0-0.4
		C9.8,5.2,9.6,5.2,9.5,5.3z"/>
	<path id="XMLID_15_" class="st0" d="M8.7,4.4L6.8,6.2c-0.1,0.1-0.1,0.3,0,0.4c0.1,0.1,0.3,0.1,0.4,0l1.9-1.8c0.1-0.1,0.1-0.3,0-0.4
		C9,4.3,8.8,4.3,8.7,4.4z"/>
</g>
</svg>
