<?xml version="1.0" encoding="utf-8"?>
<!-- Generator: Adobe Illustrator 19.0.0, SVG Export Plug-In . SVG Version: 6.00 Build 0)  -->
<svg version="1.1" id="course" xmlns="http://www.w3.org/2000/svg" xmlns:xlink="http://www.w3.org/1999/xlink" x="0px" y="0px"
	 viewBox="0 0 32 32" style="enable-background:new 0 0 32 32;" xml:space="preserve">
<style type="text/css">
	.st0{fill:none;stroke:#A9C1D4;stroke-width:0.5;stroke-miterlimit:10;}
	#course:hover .st0 {
		stroke-dasharray:2000;
		stroke-dashoffset:0;
		-webkit-animation: dash 20s linear forwards;
		-o-animation: dash 20s linear forwards;
		-moz-animation: dash 20s linear forwards;
		animation: dash 20s linear forwards;
		stroke: #006064;
		fill:#80DEEA;
	}
	#course {
		cursor:pointer;
	}
	@-webkit-keyframes dash {
		from {
			stroke-dashoffset:2000;
		}
		to {
			stroke-dashoffset:0;
		}
	}

</style>
<g>
	<path id="XMLID_6_" class="st0" d="M17.2,15.9c0,0,0.1,0,0.1,0l6.3-1.5c0.3-0.1,0.4-0.3,0.4-0.6c-0.1-0.3-0.3-0.4-0.6-0.4L17.1,15
		c-0.3,0.1-0.4,0.3-0.4,0.6C16.8,15.8,17,15.9,17.2,15.9z"/>
	<path id="XMLID_5_" class="st0" d="M17.2,13.4c0,0,0.1,0,0.1,0l6.3-1.5c0.3-0.1,0.4-0.3,0.4-0.6c-0.1-0.3-0.3-0.4-0.6-0.4l-6.3,1.5
		c-0.3,0.1-0.4,0.3-0.4,0.6C16.8,13.3,17,13.4,17.2,13.4z"/>
	<path id="XMLID_4_" class="st0" d="M17.2,18.4c0,0,0.1,0,0.1,0l6.3-1.5c0.3-0.1,0.4-0.3,0.4-0.6c-0.1-0.3-0.3-0.4-0.6-0.4l-6.3,1.5
		c-0.3,0.1-0.4,0.3-0.4,0.6C16.8,18.3,17,18.4,17.2,18.4z"/>
	<path id="XMLID_3_" class="st0" d="M17.2,21c0,0,0.1,0,0.1,0l3.8-0.9c0.3-0.1,0.4-0.3,0.4-0.6c-0.1-0.3-0.3-0.4-0.6-0.4L17.1,20
		c-0.3,0.1-0.4,0.3-0.4,0.6C16.8,20.9,17,21,17.2,21z"/>
	<path class="st0" d="M26.3,6.8c-0.1-0.1-0.3-0.1-0.4-0.1L16,9.2L6.1,6.7c-0.1,0-0.3,0-0.4,0.1C5.6,6.9,5.5,7.1,5.5,7.2v15.1
		c0,0.2,0.2,0.4,0.4,0.5l10,2.5c0,0,0.1,0,0.1,0c0,0,0.1,0,0.1,0l10-2.5c0.2-0.1,0.4-0.3,0.4-0.5V7.2C26.5,7.1,26.4,6.9,26.3,6.8z
		 M25.5,21.9L16,24.3l-9.5-2.4v-14l9.4,2.3c0.1,0,0.2,0,0.2,0l9.4-2.3V21.9z"/>
</g>
</svg>
