<?xml version="1.0" encoding="utf-8"?>
<!-- Generator: Adobe Illustrator 19.0.0, SVG Export Plug-In . SVG Version: 6.00 Build 0)  -->
<svg version="1.1" id="font" xmlns="http://www.w3.org/2000/svg" xmlns:xlink="http://www.w3.org/1999/xlink" x="0px" y="0px"
	 viewBox="0 0 32 32" style="enable-background:new 0 0 32 32;" xml:space="preserve">
<style type="text/css">
	.st0{fill:none;stroke:#A9C1D4;stroke-width:0.5;stroke-miterlimit:10;}
	#font:hover .st0 {
		stroke-dasharray:2000;
		stroke-dashoffset:0;
		-webkit-animation: dash 20s linear forwards;
		-o-animation: dash 20s linear forwards;
		-moz-animation: dash 20s linear forwards;
		animation: dash 20s linear forwards;
		stroke: #1A237E;
		fill:#9FA8DA;
	}
	#font {
		cursor:pointer;
	}
	@-webkit-keyframes dash {
		from {
			stroke-dashoffset:2000;
		}
		to {
			stroke-dashoffset:0;
		}
	}
</style>
<g id="XMLID_2_">
	<path id="XMLID_7_" class="st0" d="M23.1,8.8c0-0.3-0.2-0.5-0.5-0.5h-2.1V7.8c0-0.3-0.2-0.5-0.5-0.5c-0.3,0-0.5,0.2-0.5,0.5v0.5h-1
		V7.8c0-0.3-0.2-0.5-0.5-0.5c-0.3,0-0.5,0.2-0.5,0.5v0.5h-1V7.8c0-0.3-0.2-0.5-0.5-0.5c-0.3,0-0.5,0.2-0.5,0.5v0.5h-1V7.8
		c0-0.3-0.2-0.5-0.5-0.5c-0.3,0-0.5,0.2-0.5,0.5v0.5h-1V7.8c0-0.3-0.2-0.5-0.5-0.5c-0.3,0-0.5,0.2-0.5,0.5v0.5H9.4
		c-0.3,0-0.5,0.2-0.5,0.5v15.5c0,0.3,0.2,0.5,0.5,0.5h9.3c0,0,0,0,0,0c0,0,0,0,0,0c0,0,0,0,0,0c0,0,0,0,0,0c0,0,0,0,0,0c0,0,0,0,0,0
		c0,0,0,0,0,0c0,0,0,0,0,0c0,0,0,0,0,0c0,0,0,0,0,0c0,0,0,0,0,0c0,0,0,0,0,0c0,0,0,0,0,0c0,0,0,0,0,0c0,0,0,0,0,0c0,0,0,0,0,0l4-4
		c0,0,0,0,0,0c0,0,0,0,0-0.1c0,0,0,0,0,0c0,0,0,0,0-0.1c0,0,0,0,0,0c0,0,0,0,0-0.1c0,0,0,0,0,0c0,0,0,0,0-0.1c0,0,0,0,0,0
		c0,0,0,0,0-0.1c0,0,0,0,0,0c0,0,0,0,0,0V8.8z M9.9,9.3h1.6v0.5c0,0.3,0.2,0.5,0.5,0.5c0.3,0,0.5-0.2,0.5-0.5V9.3h1v0.5
		c0,0.3,0.2,0.5,0.5,0.5c0.3,0,0.5-0.2,0.5-0.5V9.3h1v0.5c0,0.3,0.2,0.5,0.5,0.5c0.3,0,0.5-0.2,0.5-0.5V9.3h1v0.5
		c0,0.3,0.2,0.5,0.5,0.5c0.3,0,0.5-0.2,0.5-0.5V9.3h1v0.5c0,0.3,0.2,0.5,0.5,0.5c0.3,0,0.5-0.2,0.5-0.5V9.3h1.6v10.5h-3.5
		c-0.3,0-0.5,0.2-0.5,0.5v3.5H9.9V9.3z M19.1,23v-2.3h2.3L19.1,23z"/>
	<path id="XMLID_6_" class="st0" d="M11.4,13.3h9.3c0.3,0,0.5-0.2,0.5-0.5s-0.2-0.5-0.5-0.5h-9.3c-0.3,0-0.5,0.2-0.5,0.5
		S11.1,13.3,11.4,13.3z"/>
	<path id="XMLID_5_" class="st0" d="M11.4,15.8h9.3c0.3,0,0.5-0.2,0.5-0.5s-0.2-0.5-0.5-0.5h-9.3c-0.3,0-0.5,0.2-0.5,0.5
		S11.1,15.8,11.4,15.8z"/>
	<path id="XMLID_4_" class="st0" d="M11.4,18.3h9.3c0.3,0,0.5-0.2,0.5-0.5s-0.2-0.5-0.5-0.5h-9.3c-0.3,0-0.5,0.2-0.5,0.5
		S11.1,18.3,11.4,18.3z"/>
	<path id="XMLID_3_" class="st0" d="M16,19.8h-4.6c-0.3,0-0.5,0.2-0.5,0.5s0.2,0.5,0.5,0.5H16c0.3,0,0.5-0.2,0.5-0.5
		S16.2,19.8,16,19.8z"/>
</g>
</svg>
