<?xml version="1.0" encoding="utf-8"?>
<!-- Generator: Adobe Illustrator 19.0.0, SVG Export Plug-In . SVG Version: 6.00 Build 0)  -->
<svg version="1.1" id="Layer_1" xmlns="http://www.w3.org/2000/svg" xmlns:xlink="http://www.w3.org/1999/xlink" x="0px" y="0px"
	 viewBox="0 0 200 200" style="enable-background:new 0 0 200 200;" xml:space="preserve">
<style type="text/css">
	.st0{fill:#FFFFFF;}
	.st1{fill:#F1F3FA;}
</style>
<path id="XMLID_6_" class="st0" d="M45.3,147.8c46-18.3,66.5-51.2,75.5-74.8c0,0,0-0.1,0-0.1c0-22.8-18.5-41.3-41.3-41.3
	c-22.8,0-41.3,18.5-41.3,41.3c0,1,0,1.9,0.1,2.9c2.2-0.8,4.4-1.4,6.8-1.8c8.6-1.6,16.8-0.5,23.3,2.4c-6.1-1.3-12.8-1.5-19.7-0.2
	C38.3,78.1,29.4,82.8,23.4,89c-4.9,6.3-7.9,14.2-7.9,22.7C15.5,129.6,28.3,144.5,45.3,147.8z"/>
<path id="XMLID_3_" class="st1" d="M45.3,147.8c1.3,0.3,2.7,0.5,4,0.6c0.4,0,0.8,0.1,1.2,0.1c0,0,0,0,0,0c0.4,0,0.9,0.1,1.3,0.1h107
	c1.4,0.3,2.8,0.4,4.2,0.4c11.9,0,21.5-9.6,21.5-21.5c0-11.9-9.6-21.5-21.5-21.5c-0.1,0-0.2,0-0.3,0c0-0.2,0-0.4,0-0.6
	c0-11.4-9.2-20.6-20.6-20.6c-4.3,0-8.3,1.3-11.6,3.6c-1.6-5-5.2-9.2-9.8-11.7c0.1-1.2,0.2-2.4,0.2-3.5
	C111.7,96.6,91.2,129.6,45.3,147.8z"/>
</svg>
