<?xml version="1.0" encoding="utf-8"?>
<!-- Generator: Adobe Illustrator 19.0.0, SVG Export Plug-In . SVG Version: 6.00 Build 0)  -->
<svg version="1.1" id="Layer_1" xmlns="http://www.w3.org/2000/svg" xmlns:xlink="http://www.w3.org/1999/xlink" x="0px" y="0px"
	 viewBox="0 0 200 200" style="enable-background:new 0 0 200 200;" xml:space="preserve">
<style type="text/css">
	.st0{fill:#FFFFFF;}
	.st1{fill:#F1F3FA;}
</style>
<g id="XMLID_3_">
	<path id="XMLID_7_" class="st0" d="M126.4,35.6c-7.5-6.1-17.1-9.7-27.6-9.7c-24.3,0-44,19.7-44,44c0,0.2,0,0.4,0,0.7
		c5.4,0.2,10.4,2.2,14.1,5.4c-3.9-2-8.3-3.1-13-3.1c-0.6,0-1.3,0-1.9,0.1c0,0-0.1,0-0.1,0c-1.2,0.1-2.5,0.3-3.6,0.5
		c-9.1,2.1-16.2,9.4-18,18.6c5.5,0.1,10.5,2.1,14.4,5.4c-3.9-2-8.3-3.1-13-3.1c-3.2,0-6.3,0.6-9.2,1.7c-5.8,2.8-9.9,8.7-9.9,15.5
		c0,9.5,7.7,17.2,17.2,17.2c0.1,0,0.2,0,0.3,0c0.1,0,0.2,0,0.3,0h15.7C107,104,122.5,54.8,126.4,35.6z"/>
	<path id="XMLID_4_" class="st1" d="M168,128.8c0.1,0,0.1,0,0.2,0c9.5,0,17.2-7.7,17.2-17.2c0-9.5-7.7-17.2-17.2-17.2
		c-1.3,0-2.6,0.2-3.9,0.5c-0.9-11.6-10-20.8-21.5-22c0.1-1,0.1-2.1,0.1-3.1c0-13.9-6.4-26.2-16.4-34.3
		c-3.9,19.3-19.5,68.5-78.4,93.3h119.8C167.9,128.8,168,128.8,168,128.8z"/>
</g>
</svg>
