<?xml version="1.0" encoding="utf-8"?>
<!-- Generator: Adobe Illustrator 19.0.0, SVG Export Plug-In . SVG Version: 6.00 Build 0)  -->
<svg version="1.1" id="Layer_1" xmlns="http://www.w3.org/2000/svg" xmlns:xlink="http://www.w3.org/1999/xlink" x="0px" y="0px"
	 viewBox="0 0 200 200" style="enable-background:new 0 0 200 200;" xml:space="preserve">
<style type="text/css">
	.st0{fill:#FFFFFF;}
	.st1{fill:#F1F3FA;}
</style>
<path id="XMLID_6_" class="st0" d="M45.7,136.1c4.6,0,8.9-1,12.8-2.7c0.3,0.2,0.6,0.4,0.8,0.6c70.4-25.8,81.3-86.9,82.6-97.8
	c-4.8-2.4-10.3-3.7-16-3.7c-15,0-27.9,9.1-33.5,22.1c1,0.8,1.9,1.6,2.7,2.5c-0.9-0.7-1.9-1.3-3-1.8c0,0,0,0,0,0
	c-0.2-0.1-0.4-0.2-0.5-0.3c-2.6-1.3-5.6-2.2-8.7-2.5c-10-1-19.3,4-24.2,12c0.7-2.2,1.8-4.2,3.1-6c-3.2-1.8-6.9-2.8-10.8-2.8
	c-11.7,0-21.3,8.9-22.4,20.4c3.3-1.2,6.8-1.7,10.2-1.4c-3.9,0.6-7.8,2-11.4,4.3c-8,5.7-13.2,15-13.2,25.6
	C14.2,122,28.3,136.1,45.7,136.1z"/>
<path id="XMLID_3_" class="st1" d="M59.4,134c4,3.1,9,4.9,14.5,4.9c5.4,0,10.5-1.8,14.5-4.9c4.3,4.4,10.3,7.1,17,7.1
	c6.6,0,12.5-2.7,16.9-7c5,3,10.9,4.8,17.2,4.8c14.2,0,26.4-8.9,31.2-21.4c8.8-3.5,15.1-12.1,15.1-22.2c0-13-10.4-23.6-23.4-23.9
	c0.1-0.8,0.1-1.6,0.1-2.4c0-14.4-8.3-26.8-20.4-32.7C140.6,47.1,129.7,108.2,59.4,134z"/>
</svg>
