<?xml version="1.0" encoding="utf-8"?>
<!-- Generator: Adobe Illustrator 19.0.0, SVG Export Plug-In . SVG Version: 6.00 Build 0)  -->
<svg version="1.1" id="Layer_1" xmlns="http://www.w3.org/2000/svg" xmlns:xlink="http://www.w3.org/1999/xlink" x="0px" y="0px"
	 viewBox="0 0 200 200" style="enable-background:new 0 0 200 200;" xml:space="preserve">
<style type="text/css">
	.st0{fill:#FFFFFF;}
	.st1{fill:#F1F3FA;}
</style>
<g id="XMLID_7_">
	<path id="XMLID_8_" class="st0" d="M165.1,93c2.2-3.8,3.4-8.1,3.4-12.8c0-14.3-11.6-25.9-25.9-25.9c-0.4,0-0.8,0-1.2,0
		c0,0,0-0.1,0-0.1c-5.5,0-10.2,1-13,2.7c1.9-2.8,7.1-4.5,13.7-4.7c0.6-2.2,1-4.6,1-7c0-14.3-11.6-25.9-25.9-25.9
		c-10.5,0-19.5,6.2-23.6,15.2c3.7,0.8,6.5,2.2,7.8,4.1c-3-1.8-7.8-2.8-13.6-2.7c-13.4,1-24,12.2-24,25.8c0,6.1,2.1,11.8,5.7,16.2
		c0,0-0.1,0-0.1,0c2.4,2.5,4.8,4.2,7,5c-2.5,0.2-5.5-1.4-8.6-4.2c-4.1,2.1-7.5,5.3-10,9.2c4.7,0.5,8.3,2,9.9,4.2
		c-4.2-2.5-12.3-3.2-21.3-1.6c-10.5,3.3-18.2,13.1-18.2,24.7c0,11.9,8,21.9,19,25c1.5,0.7,3.2,1.1,5,1.1h98.7c1,0,1.9-0.1,2.8-0.3
		c13.4-1,23.9-12.2,23.9-25.8C177.5,105.8,172.6,97.6,165.1,93z"/>
</g>
<path id="XMLID_6_" class="st0" d="M143,54.3c-0.1,0-0.2,0-0.4,0c-0.4,0-0.8,0-1.2,0c0,0,0-0.1,0-0.1c-5.5,0-10.2,1-13,2.7
	c1.9-2.8,7.1-4.5,13.7-4.7c0.6-2.2,1-4.6,1-7c0-14.3-11.6-25.9-25.9-25.9c-10.5,0-19.5,6.2-23.6,15.2c3.7,0.8,6.5,2.2,7.8,4.1
	c-3-1.8-7.8-2.8-13.6-2.7c-13.4,1-24,12.2-24,25.8c0,6.1,2.1,11.8,5.7,16.2c0,0-0.1,0-0.1,0c2.4,2.5,4.8,4.2,7,5
	c-2.5,0.2-5.5-1.4-8.6-4.2c-4.1,2.1-7.5,5.3-10,9.2c4.7,0.5,8.3,2,9.9,4.2c-4.2-2.5-12.3-3.2-21.3-1.6
	c-10.5,3.3-18.2,13.1-18.2,24.7c0,11.9,8,21.9,19,25c1.5,0.7,3.2,1.1,5,1.1h11C113.2,118.5,134.2,79.9,143,54.3z"/>
<path id="XMLID_3_" class="st1" d="M153.6,140.9c13.4-1,23.9-12.2,23.9-25.8c0-9.4-5-17.6-12.4-22.1c2.2-3.8,3.4-8.1,3.4-12.8
	c0-14.2-11.4-25.7-25.6-25.9c-8.7,25.7-29.8,64.2-79.8,87h87.7C151.8,141.3,152.7,141.2,153.6,140.9z"/>
</svg>
