<?xml version="1.0" encoding="utf-8"?>
<!-- Generator: Adobe Illustrator 19.0.0, SVG Export Plug-In . SVG Version: 6.00 Build 0)  -->
<svg version="1.1" id="Layer_1" xmlns="http://www.w3.org/2000/svg" xmlns:xlink="http://www.w3.org/1999/xlink" x="0px" y="0px"
	 viewBox="0 0 200 200" style="enable-background:new 0 0 200 200;" xml:space="preserve">
<style type="text/css">
	.st0{fill:#FFFFFF;}
	.st1{fill:#F1F3FA;}
</style>
<path id="XMLID_6_" class="st0" d="M136.3,35.1c-2.4-0.6-5-0.9-7.6-0.9c-3.7,0-7.3,0.6-10.6,1.8c0,0,0-0.1-0.1-0.1
	c-4.6,1.8-8.6,4.6-11.7,8.3c2.2-4.6,5.9-8.3,10.4-10.6C110.4,23.7,99.3,17,86.6,17c-19.7,0-35.7,16-35.7,35.7c0,0.7,0,1.4,0.1,2.1
	c3.7,1,7.1,2.9,9.8,5.3c-3.1-1.6-6.5-2.8-10.1-3.3c-5.2,2.1-9.4,6-11.9,10.9c7.5,1.7,13,5.4,14.5,9.9c-2.8-3.3-7.7-5.7-14.1-6.9
	c-0.5-0.1-1-0.2-1.5-0.2c0,0-0.1,0-0.1,0c-0.4,0-0.9,0-1.3,0c-12.7,0-22.9,10.3-22.9,22.9c0,12.7,10.3,22.9,22.9,22.9
	c0.9,0,1.8-0.1,2.7-0.2c3.6,7.6,9.8,13.8,17.5,17.3C113.3,106,131,57.9,136.3,35.1z"/>
<path id="XMLID_3_" class="st1" d="M85.8,133.8c5.8,7.1,14.7,11.7,24.7,11.7c9.7,0,18.4-4.4,24.3-11.2c3.7,1.2,7.7,1.8,11.8,1.6
	c17.6-0.9,31.1-15.9,30.2-33.5c-0.2-4.6-1.5-9-3.4-12.8c7.7-2.2,13.4-9.3,13.4-17.7c0-10.2-8.3-18.5-18.5-18.5c-3.5,0-6.8,1-9.7,2.7
	c-3.2-10.3-11.7-18.3-22.3-21c-5.3,22.8-23,71-79.8,98.5c4.5,2.1,9.6,3.2,14.9,3.2C76.5,136.9,81.4,135.7,85.8,133.8z"/>
</svg>
