<svg version="1.1" id="three" xmlns="http://www.w3.org/2000/svg" xmlns:xlink="http://www.w3.org/1999/xlink" x="0px" y="0px"
	 viewBox="0 0 32 32" style="enable-background:new 0 0 32 32;" xml:space="preserve">
<style type="text/css">
	.st0{fill:none;stroke:#A9C1D4;stroke-width:0.5;stroke-miterlimit:10;}

	#three:hover .st0 {
		stroke-dasharray:2000;
		stroke-dashoffset:0;
		-webkit-animation: dash 20s linear forwards;
		-o-animation: dash 20s linear forwards;
		-moz-animation: dash 20s linear forwards;
		animation: dash 20s linear forwards;
		stroke: #F57F17;
		fill:#FFF59D;
	}
	#three {
		cursor:pointer;
	}
	@-webkit-keyframes dash {
		from {
			stroke-dashoffset:2000;
		}
		to {
			stroke-dashoffset:0;
		}
	}

	<script type="text/javascript">
	</script>

</style>
<path class="st0" d="M25.3,16c0-0.2-0.1-0.3-0.3-0.4l-3.6-2l3.6-2.1c0.2-0.1,0.3-0.3,0.3-0.4c0-0.2-0.1-0.3-0.3-0.4l-8.8-5
	c-0.2-0.1-0.3-0.1-0.5,0l-8.8,5c-0.2,0.1-0.3,0.3-0.3,0.4c0,0.2,0.1,0.3,0.3,0.4l3.6,2.1l-3.6,2c-0.2,0.1-0.3,0.3-0.3,0.4
	c0,0.2,0.1,0.3,0.3,0.4l3.6,2.1l-3.6,2c-0.2,0.1-0.3,0.3-0.3,0.4c0,0.2,0.1,0.3,0.3,0.4l8.8,5c0.1,0,0.2,0.1,0.2,0.1
	c0.1,0,0.2,0,0.2-0.1l8.8-5c0.2-0.1,0.3-0.3,0.3-0.4c0-0.2-0.1-0.3-0.3-0.4l-3.6-2l3.6-2.1C25.2,16.3,25.3,16.2,25.3,16z M16,6.6
	l7.7,4.4L16,15.4L8.3,11L16,6.6z M23.7,21L16,25.4L8.3,21l3.4-1.9l4.1,2.3c0.1,0,0.2,0.1,0.2,0.1c0.1,0,0.2,0,0.2-0.1l4.1-2.3
	L23.7,21z M16,20.4L8.3,16l3.4-1.9l4.1,2.3c0.1,0,0.2,0.1,0.2,0.1c0.1,0,0.2,0,0.2-0.1l4.1-2.3l3.4,1.9L16,20.4z"/>
</svg>
