<?xml version="1.0" encoding="utf-8"?>
<!-- Generator: Adobe Illustrator 19.0.0, SVG Export Plug-In . SVG Version: 6.00 Build 0)  -->
<svg version="1.1" id="code" xmlns="http://www.w3.org/2000/svg" xmlns:xlink="http://www.w3.org/1999/xlink" x="0px" y="0px"
	 viewBox="0 0 32 32" style="enable-background:new 0 0 32 32;" xml:space="preserve">
<style type="text/css">
	.st0{fill:none;stroke:#A9C1D4;stroke-width:0.5;stroke-miterlimit:10;}
	#code:hover .st0 {
		stroke-dasharray:2000;
		stroke-dashoffset:0;
		-webkit-animation: dash 20s linear forwards;
		-o-animation: dash 20s linear forwards;
		-moz-animation: dash 20s linear forwards;
		animation: dash 20s linear forwards;
		stroke: #827717;
		fill:#E6EE9C;
	}
	#code {
		cursor:pointer;
	}
	@-webkit-keyframes dash {
		from {
			stroke-dashoffset:2000;
		}
		to {
			stroke-dashoffset:0;
		}
	}

</style>
<g id="XMLID_2_">
	<path id="XMLID_5_" class="st0" d="M27.9,15.6l-7.1-6c-0.2-0.2-0.5-0.1-0.7,0.1c-0.2,0.2-0.1,0.5,0.1,0.7l6.6,5.6l-6.6,5.5
		c-0.2,0.2-0.2,0.5-0.1,0.7c0.1,0.1,0.2,0.2,0.4,0.2c0.1,0,0.2,0,0.3-0.1l7.1-5.9C28,16.3,28,16.2,28,16C28,15.9,28,15.7,27.9,15.6z
		"/>
	<path id="XMLID_4_" class="st0" d="M11.9,9.7c-0.2-0.2-0.5-0.2-0.7-0.1l-7.1,6C4,15.7,4,15.9,4,16c0,0.1,0.1,0.3,0.2,0.4l7.1,5.9
		c0.1,0.1,0.2,0.1,0.3,0.1c0.1,0,0.3-0.1,0.4-0.2c0.2-0.2,0.1-0.5-0.1-0.7L5.2,16l6.6-5.6C12.1,10.3,12.1,10,11.9,9.7z"/>
	<path id="XMLID_3_" class="st0" d="M17.6,9.6C17.3,9.5,17,9.7,17,9.9L14,21.8c-0.1,0.3,0.1,0.5,0.4,0.6c0,0,0.1,0,0.1,0
		c0.2,0,0.4-0.2,0.5-0.4l2.9-11.9C18,9.9,17.8,9.7,17.6,9.6z"/>
</g>
</svg>
