<?xml version="1.0" encoding="utf-8"?>
<!-- Generator: Adobe Illustrator 19.0.0, SVG Export Plug-In . SVG Version: 6.00 Build 0)  -->
<svg version="1.1" id="Layer_1" xmlns="http://www.w3.org/2000/svg" xmlns:xlink="http://www.w3.org/1999/xlink" x="0px" y="0px"
	 viewBox="0 0 20 16" style="enable-background:new 0 0 20 16;" xml:space="preserve">
<style type="text/css">
	.st0{fill:#010101;stroke:#010101;stroke-width:0.2;stroke-miterlimit:10;}
</style>
<g id="XMLID_6_">
	<path id="XMLID_5_" class="st0" d="M14.1,13.9c-0.2,0-0.4-0.2-0.4-0.4V9.1c0-0.2,0.2-0.4,0.4-0.4c0.2,0,0.4,0.2,0.4,0.4v4.4
		C14.5,13.7,14.3,13.9,14.1,13.9z"/>
	<path id="XMLID_4_" class="st0" d="M16.3,11.7h-4.4c-0.2,0-0.4-0.2-0.4-0.4s0.2-0.4,0.4-0.4h4.4c0.2,0,0.4,0.2,0.4,0.4
		S16.5,11.7,16.3,11.7z"/>
	<path class="st0" d="M19.1,4.9c-0.1-0.1-0.2-0.2-0.3-0.2h-1.3V1.3c0-0.2-0.2-0.4-0.4-0.4H3c-0.2,0-0.4,0.2-0.4,0.4v1.9H1.2
		C1.1,3.2,1,3.3,0.9,3.4C0.8,3.5,0.8,3.6,0.8,3.7l1.8,11c0,0.2,0.2,0.4,0.4,0.4h7.6c0.2,0,0.3-0.1,0.4-0.2c0.1-0.1,0.1-0.3,0-0.5
		c-0.5-0.7-0.8-1.6-0.8-2.5c0-2.3,1.9-4.2,4.2-4.2c1.3,0,2.5,0.6,3.3,1.6c0.1,0.1,0.3,0.2,0.5,0.2c0.2,0,0.3-0.2,0.3-0.3l0.7-4
		C19.2,5.1,19.2,5,19.1,4.9z M3.4,1.8h13.2v3H7.9L5.9,3.3C5.8,3.2,5.7,3.2,5.6,3.2H3.4V1.8z M17.8,8.2c-0.9-0.8-2.1-1.3-3.4-1.3
		c-2.8,0-5.1,2.3-5.1,5.1c0,0.8,0.2,1.6,0.5,2.3H3.4L1.7,4.1h3.7l2.1,1.4c0.1,0.1,0.2,0.1,0.3,0.1h10.4L17.8,8.2z"/>
</g>
</svg>
