<?xml version="1.0" encoding="utf-8"?>
<!-- Generator: Adobe Illustrator 19.0.0, SVG Export Plug-In . SVG Version: 6.00 Build 0)  -->
<svg version="1.1" id="Layer_1" xmlns="http://www.w3.org/2000/svg" xmlns:xlink="http://www.w3.org/1999/xlink" x="0px" y="0px"
	 viewBox="0 0 20 16" style="enable-background:new 0 0 20 16;" xml:space="preserve">
<style type="text/css">
	.st0{fill:#010101;}
</style>
<g id="XMLID_1_">
	<path id="XMLID_14_" class="st0" d="M10.8,15l-0.5,0.4c-0.1,0.1-0.2,0.1-0.3,0.1s-0.2,0-0.3-0.1L9.2,15C2.8,9.9,2.3,6.1,2.6,4.2
		c0.3-1.7,1.3-3,2.9-3.5c0.5-0.2,1-0.2,1.4-0.2c1.4,0,2.4,0.7,3.2,1.3c0.7-0.7,1.8-1.3,3.2-1.3c0.5,0,0.9,0.1,1.4,0.2
		c1.5,0.5,2.6,1.8,2.9,3.5C17.7,6.1,17.3,9.9,10.8,15z"/>
</g>
</svg>
